<?xml version="1.0" encoding="UTF-8"?><svg id="Layer_2" xmlns="http://www.w3.org/2000/svg" viewBox="0 0 64 64"><defs><style>.cls-1{fill:#efefef;}.cls-2{fill:#242424;}</style></defs><g id="Layer_1-2"><g><rect class="cls-1" width="64" height="64" rx="5.96" ry="5.96"/><path class="cls-2" d="M22.34,12.68c-4,0-7.25,3.24-7.25,7.25v24.15c0,4,3.24,7.25,7.25,7.25h24.1c1.24,0,2.37-1.01,2.46-2.24,.1-1.41-1.02-2.59-2.41-2.59v-4.83c1.34,0,2.42-1.08,2.42-2.42V15.09c0-1.33-1.08-2.42-2.42-2.42H22.34Zm.05,28.98h19.27v4.83H22.34c-1.39,0-2.51-1.17-2.41-2.59,.09-1.24,1.22-2.24,2.46-2.24Zm3.61-19.32h14.43c.59,0,1.11,.41,1.22,.98,.14,.76-.45,1.43-1.19,1.43h-14.49c-.74,0-1.33-.67-1.19-1.43,.11-.58,.63-.98,1.22-.98Zm-.03,4.83h14.46c.59,0,1.11,.41,1.22,.98,.14,.76-.45,1.43-1.19,1.43h-14.46c-.59,0-1.11-.41-1.22-.98-.14-.76,.45-1.43,1.19-1.43Z"/></g></g></svg>