<?xml version="1.0" encoding="UTF-8"?><svg id="Layer_2" xmlns="http://www.w3.org/2000/svg" viewBox="0 0 64 64"><defs><style>.cls-1{fill:#efefef;}.cls-2{fill:#242424;}</style></defs><g id="Layer_1-2"><rect class="cls-1" width="64" height="64" rx="5.96" ry="5.96"/><path class="cls-2" d="M18.5,5c-5.59,0-10.12,4.53-10.12,10.12V48.87c0,5.59,4.53,10.12,10.12,10.12H52.18c1.73,0,3.32-1.41,3.44-3.13,.14-1.98-1.42-3.62-3.37-3.62v-6.75c1.87,0,3.37-1.51,3.37-3.37V8.38c0-1.86-1.51-3.37-3.37-3.37H18.5Zm.07,40.5h26.93v6.75H18.5c-1.95,0-3.5-1.64-3.37-3.62,.12-1.73,1.7-3.13,3.44-3.13Zm5.05-27h20.17c.82,0,1.55,.57,1.7,1.37,.2,1.07-.63,2-1.66,2H23.58c-1.03,0-1.85-.94-1.66-2,.15-.81,.88-1.37,1.7-1.37Zm-.04,6.75h20.21c.82,0,1.55,.57,1.7,1.37,.2,1.07-.63,2-1.66,2H23.62c-.82,0-1.55-.57-1.7-1.37-.2-1.07,.63-2,1.66-2Z"/></g></svg>